<?xml version="1.0" encoding="utf-8"?>
<!-- Generator: Adobe Illustrator 15.0.0, SVG Export Plug-In . SVG Version: 6.00 Build 0)  -->
<!DOCTYPE svg PUBLIC "-//W3C//DTD SVG 1.1//EN" "http://www.w3.org/Graphics/SVG/1.1/DTD/svg11.dtd">
<svg version="1.1" id="Layer_1" xmlns="http://www.w3.org/2000/svg" xmlns:xlink="http://www.w3.org/1999/xlink" x="0px" y="0px"
	 width="396px" height="396px" viewBox="0 0 396 396" enable-background="new 0 0 396 396" xml:space="preserve">
<g>
	<defs>
		<rect id="SVGID_1_" width="396" height="396"/>
	</defs>
	<clipPath id="SVGID_2_">
		<use xlink:href="#SVGID_1_"  overflow="visible"/>
	</clipPath>
	<path clip-path="url(#SVGID_2_)" d="M191.695,131.465c-4.018-6.04-10.695-10.34-20.118-14.305
		c-3.455-1.453-9.965-6.087-12.855-11.24c-2.676-4.757-4.135-9.345-3.831-15.324c0.367-7.265,1.926-14.531,5.492-19.745
		c3.24-4.738,7.61-8.381,7.61-8.381s-5.599,2.567-8.692,6.911c-4.023,5.649-6.02,12.842-6.375,19.871
		c-0.32,6.271,1.015,12.119,3.767,17.009c2.944,5.252,9.477,11.339,14.465,13.29c10.092,3.949,15.29,8.376,18.592,13.265
		c3.297,4.888,4.493,8.682,3.208,16.528c-0.788,4.783-2.683,9.03-6.356,12.379c-2.448,2.212-5.615,4.886-8.908,6.196
		c-5.862,2.308-13.059,2.089-15.371,1.653c-15.743-2.968-27.432-11.749-35.324-24.327c-7.114-11.354-10.144-25.302-7.483-39.498
		c-0.071,0.341-0.152,0.678-0.217,1.022c-2.634,13.972,0.073,28.302,7.624,40.353c8.513,13.568,20.644,21.92,36.056,24.826
		c2.465,0.465,9.91,0.679,15.984-1.713c3.397-1.351,6.578-3.995,9.245-6.407c3.61-3.291,5.803-7.548,6.703-13.016
		C196.079,143.681,196.125,138.125,191.695,131.465"/>
	<path clip-path="url(#SVGID_2_)" d="M166.855,133.012c-6.103-1.151-11.982,2.893-13.14,9.033
		c-1.157,6.136,2.848,12.037,8.95,13.188c0.18,0.034,0.359,0.049,0.539,0.074c-5.19-1.269-8.549-6.425-7.541-11.769
		c1.042-5.529,6.357-9.186,11.847-8.151c5.382,1.015,8.953,6.167,8.112,11.578c0.065-0.25,0.133-0.497,0.182-0.755
		C176.961,140.07,172.96,134.163,166.855,133.012"/>
</g>
<g>
	<defs>
		<path id="SVGID_3_" d="M160.681,155.864c-6.112-1.099-10.167-6.968-9.061-13.112c1.106-6.15,6.952-10.244,13.064-9.143
			c6.115,1.099,10.164,6.973,9.058,13.122c-0.984,5.471-5.723,9.311-11.066,9.312C162.018,156.043,161.351,155.984,160.681,155.864
			 M117.127,106.679c-2.561,14.24,0.585,28.185,7.805,39.495c7.997,12.512,19.758,21.195,35.525,24.032
			c2.317,0.416,9.514,0.574,15.358-1.783c3.28-1.337,6.426-4.038,8.855-6.27c3.644-3.38,5.504-7.642,6.252-12.432
			c1.221-7.856-0.202-12.839-4.49-17.63c-3.934-4.397-9.229-7.763-18.833-12.448c-5.693-2.776-10.312-7.473-13.301-12.699
			c-2.794-4.867-4.177-10.704-3.909-16.977c0.295-7.032,2.283-14.206,6.207-19.924c2.412-3.529,6.53-6.74,10.484-8.782
			C143.075,63.575,121.607,81.774,117.127,106.679"/>
	</defs>
	<clipPath id="SVGID_4_">
		<use xlink:href="#SVGID_3_"  overflow="visible"/>
	</clipPath>
	
		<linearGradient id="SVGID_5_" gradientUnits="userSpaceOnUse" x1="0" y1="396.0234" x2="1" y2="396.0234" gradientTransform="matrix(39.2093 94.2288 94.2288 -39.2093 -37181.6172 15600.3262)">
		<stop  offset="0" style="stop-color:#FDB913"/>
		<stop  offset="0.5068" style="stop-color:#FFDF00"/>
		<stop  offset="1" style="stop-color:#FDB913"/>
	</linearGradient>
	<polygon clip-path="url(#SVGID_4_)" fill="url(#SVGID_5_)" points="180.693,33.745 230.988,154.616 126.016,198.296 75.72,77.425 	
		"/>
</g>
<g>
	<defs>
		<rect id="SVGID_6_" width="396" height="396"/>
	</defs>
	<clipPath id="SVGID_7_">
		<use xlink:href="#SVGID_6_"  overflow="visible"/>
	</clipPath>
	<path clip-path="url(#SVGID_7_)" d="M189.732,62.412c-3.75-0.707-12.287-0.898-17.762,3.438
		c-5.927,4.696-9.387,11.356-10.283,19.798c-1.057,10.056,0.565,17.991,4.82,23.585c3.968,5.217,10.899,8.531,17.014,11.454
		c1.432,0.685,2.821,1.35,4.118,2.013c7.033,3.593,11.333,8.159,13.53,14.367c2.393,6.762,1.838,14.76-1.483,21.396
		c-0.32,0.644-0.631,1.255-0.937,1.849c0.301-0.502,0.591-1.016,0.86-1.557c3.453-6.897,4.027-15.218,1.537-22.259
		c-2.299-6.491-6.769-11.252-14.07-14.982c-1.304-0.668-2.703-1.336-4.144-2.025c-6.002-2.87-12.805-6.124-16.612-11.127
		c-4.078-5.362-5.625-13.033-4.599-22.8c0.864-8.133,4.184-14.541,9.869-19.046c5.162-4.087,13.292-3.892,16.87-3.217
		c30.217,5.697,50.165,34.916,44.467,65.133c-2.849,15.107-12.519,28.247-25.731,36.394c-6.185,3.814-15.648,7.823-23.048,9.138
		c0,0,2.778,1.266,4.869,0.918c2.091-0.347,13.672-4.37,20.322-8.518c13.201-8.233,22.75-21.662,25.741-37.526
		C240.893,98.021,220.549,68.223,189.732,62.412"/>
	<path clip-path="url(#SVGID_7_)" d="M169.469,81.431c-1.099,5.829,2.72,11.459,8.511,12.551c5.79,1.092,11.393-2.761,12.492-8.59
		c1.1-5.829-2.716-11.458-8.505-12.55C176.175,71.75,170.568,75.603,169.469,81.431 M190.451,85.388
		c-0.986,5.229-6.01,8.687-11.2,7.708c-5.193-0.979-8.615-6.029-7.629-11.258c0.986-5.229,6.013-8.687,11.205-7.708
		C188.017,75.109,191.437,80.159,190.451,85.388"/>
</g>
<g>
	<defs>
		<path id="SVGID_8_" d="M176.722,94.119c-6.107-1.151-10.116-7.055-8.958-13.197c1.157-6.137,7.043-10.181,13.149-9.03
			s10.109,7.06,8.952,13.197c-1.025,5.437-5.749,9.226-11.054,9.226C178.122,94.316,177.424,94.252,176.722,94.119 M169.773,66.543
			c-5.063,4.011-10.369,9.928-11.296,18.669c-0.981,9.329,2.001,16.988,6.125,22.407c4.629,6.083,13.654,10.646,20.371,14.084
			c6.862,3.505,12.016,7.046,14.552,14.205c2.629,7.424,1.807,15.963-1.562,22.69c-3.535,7.097-8.805,11.155-14.431,13.651
			c22.781-3.239,42.224-20.468,46.721-44.321c5.65-29.968-14.079-58.84-44.05-64.492c-0.917-0.173-2.498-0.356-4.394-0.356
			C178.137,63.08,173.281,63.766,169.773,66.543"/>
	</defs>
	<clipPath id="SVGID_9_">
		<use xlink:href="#SVGID_8_"  overflow="visible"/>
	</clipPath>
	
		<linearGradient id="SVGID_10_" gradientUnits="userSpaceOnUse" x1="0" y1="396.0127" x2="1" y2="396.0127" gradientTransform="matrix(38.0992 63.1051 63.1245 -38.0739 -24821.6699 15161.959)">
		<stop  offset="0" style="stop-color:#58C5C7"/>
		<stop  offset="0.0199" style="stop-color:#58C5C7"/>
		<stop  offset="0.1557" style="stop-color:#66CBCC"/>
		<stop  offset="0.409" style="stop-color:#89DCD9"/>
		<stop  offset="0.5519" style="stop-color:#A0E6E1"/>
		<stop  offset="0.5924" style="stop-color:#98E3DE"/>
		<stop  offset="0.864" style="stop-color:#6ACDCD"/>
		<stop  offset="1" style="stop-color:#58C5C7"/>
	</linearGradient>
	<polygon clip-path="url(#SVGID_9_)" fill="url(#SVGID_10_)" points="214.974,28.412 284.22,143.107 178.426,206.917 109.18,92.222 
			"/>
</g>
<g>
	<defs>
		<rect id="SVGID_11_" width="396" height="396"/>
	</defs>
	<clipPath id="SVGID_12_">
		<use xlink:href="#SVGID_11_"  overflow="visible"/>
	</clipPath>
	<path clip-path="url(#SVGID_12_)" d="M41.322,202.094c0.751-0.083,1.345-0.622,2.166-1.367c1.364-1.238,3.427-3.111,7.555-4.241
		c9.771-2.671,16.21-0.912,22.439,0.791c2.496,0.682,5.058,1.365,7.808,1.771c0.661-0.67,1.322-1.323,1.979-1.938
		c-3.869-0.225-7.306-1.165-10.643-2.077c-6.275-1.716-12.766-3.49-22.627-0.791c-4.21,1.152-6.31,3.059-7.7,4.32
		c-0.772,0.701-1.33,1.207-1.966,1.277c-0.85,0.097-1.708-0.577-2.282-1.155c-0.352-0.355-0.791-0.893-1.143-1.461
		c-0.003,0.026-0.011,0.052-0.013,0.078c-0.13,1.088,1.037,2.71,1.853,3.533C39.663,201.758,40.53,202.182,41.322,202.094"/>
	<path clip-path="url(#SVGID_12_)" d="M104.66,194.354c-0.303,1.134-1.795,1.997-3.239,2.831c-0.469,0.272-0.933,0.539-1.336,0.807
		c-10.809,7-18.795,17.621-25.183,27.087c-6.647,9.736-22.614,36.977-29.741,49.224c0.818-0.017,1.661-0.029,2.491-0.038
		c7.593-13.024,22.213-37.883,28.496-47.086c6.367-9.437,14.326-20.023,25.085-26.99c0.396-0.264,0.854-0.527,1.317-0.795
		c1.506-0.871,3.062-1.771,3.401-3.038c0.523-1.738-0.629-3.832-1.362-4.926c-0.284-0.425-0.618-0.859-0.977-1.282
		C104.285,191.247,105.082,192.95,104.66,194.354"/>
	<path clip-path="url(#SVGID_12_)" d="M115.735,274.09c-0.13-0.679-0.526-1.206-1.146-1.524c-0.04-0.021-0.081-0.032-0.121-0.051
		c0.098,1.197-0.596,3.547-5.858,9.558c-3.698,4.225-10.083,6.776-16.839,6.776c-0.323,0-0.646-0.006-0.971-0.018
		c-2.276-0.082-6.499-0.615-12.55-1.586l-14.263-2.276c-4.463-0.767-8.815-1.23-12.942-1.38c-6.991-0.253-13.978,0.762-20.774,3.015
		l-0.316,0.104l-0.255-0.215c-0.592-0.502-1.045-1.015-1.371-1.533c0.002,1.281,0.7,2.526,2.092,3.705l0.406,0.345l0.506-0.168
		c6.755-2.239,13.706-3.247,20.65-2.996c4.11,0.149,8.446,0.611,12.898,1.375l14.263,2.276c6.151,0.986,10.27,1.507,12.593,1.591
		c0.328,0.012,0.655,0.018,0.982,0.018c6.858-0.001,13.346-2.598,17.109-6.897C115.596,277.618,115.962,275.276,115.735,274.09"/>
</g>
<g>
	<defs>
		<path id="SVGID_13_" d="M92.024,189.209c-0.777,0.725-1.889,2.073-2.89,2.383c-2.001,0.622-5.113,0.311-7.781,0.207
			c-7.67-0.414-14.896-2.59-21.566-3.211c-8.005-0.83-14.999,0.057-19.686,2.638c-1.379,0.759-4.052,2.732-4.162,4.286
			c-0.112,0.933,2.052,3.881,3.379,3.736c1.327-0.146,3.032-3.789,9.575-5.579c15.999-4.376,23.121,2.792,34.905,2.896
			c-16.338,14.508-34.067,47.896-47.112,70.733c-0.128,0.195-9.252,14.207-9.312,15.65c-0.044,1.029,0.543,2.062,1.76,3.092
			c6.897-2.286,13.89-3.3,20.983-3.044c4.174,0.151,8.513,0.614,13.014,1.387l7.356,1.183l6.907,1.094
			c6.053,0.971,10.214,1.498,12.477,1.579c7.092,0.256,13.642-2.329,17.342-6.557c5.139-5.872,6.796-9.271,5.042-10.171
			c-1.755-0.9-4.445,2.454-7.175,4.48c-3.281,2.436-7.99,5.076-12.822,4.901c-3.522-0.127-7.83-0.706-12.925-1.734l-9.744-1.903
			l-5.702-0.979c-4.903-0.836-8.635-1.3-11.201-1.394c-1.738-0.062-6.015-0.05-9.521,0.037
			c6.361-10.942,23.398-40.072,30.295-50.173c6.781-10.049,14.785-20.411,25.346-27.249c1.556-1.037,4.002-2.072,4.335-3.316
			c0.778-2.59-3.558-7.667-5.669-7.875c-0.115-0.01-0.228-0.015-0.341-0.015C94.954,186.292,93.187,188.124,92.024,189.209"/>
	</defs>
	<clipPath id="SVGID_14_">
		<use xlink:href="#SVGID_13_"  overflow="visible"/>
	</clipPath>
	
		<linearGradient id="SVGID_15_" gradientUnits="userSpaceOnUse" x1="0" y1="396.0039" x2="1" y2="396.0039" gradientTransform="matrix(107.5094 22.7667 22.7667 -107.5094 -8968.502 42806.457)">
		<stop  offset="0" style="stop-color:#FDB913"/>
		<stop  offset="0.5068" style="stop-color:#FFDF00"/>
		<stop  offset="1" style="stop-color:#FDB913"/>
	</linearGradient>
	<polygon clip-path="url(#SVGID_14_)" fill="url(#SVGID_15_)" points="31.05,168.724 134.723,190.679 110.289,306.062 
		6.616,284.107 	"/>
</g>
<g>
	<defs>
		<rect id="SVGID_16_" width="396" height="396"/>
	</defs>
	<clipPath id="SVGID_17_">
		<use xlink:href="#SVGID_16_"  overflow="visible"/>
	</clipPath>
	<path clip-path="url(#SVGID_17_)" d="M222.218,253.987c0.284-0.42,0.653-0.925,1.154-1.553c5.004-6.27,12.677-11.642,22.85-16.023
		c0.818-1.175,1.607-2.389,2.366-3.646c-12.183,4.653-21.209,10.585-26.849,17.651c-1.832,2.297-2.021,3.061-1.972,3.312
		C219.823,253.893,220.54,254.166,222.218,253.987"/>
	<path clip-path="url(#SVGID_17_)" d="M272.757,266.131c0.334-0.257,0.642-0.566,0.938-0.898c-0.054-0.492-0.099-0.995-0.132-1.52
		c-0.755-10.02,2.045-21.414,4.576-30.246c0.55-2.097,1.233-4.5,2.024-6.411c-0.303-1.093-0.678-2.141-1.17-3.059
		c-0.99,2.014-1.832,4.955-2.488,7.451c-2.53,8.831-5.33,20.225-4.576,30.247C272.036,263.337,272.181,264.825,272.757,266.131"/>
	<path clip-path="url(#SVGID_17_)" d="M221.562,195.205c-0.225,0.671-0.438,1.305-0.602,1.882c-0.44,1.737-0.836,3.399-1.202,4.945
		c-0.133,0.556-0.261,1.103-0.39,1.637c0.879-0.781,1.77-1.563,2.675-2.338c0.177-0.729,0.357-1.467,0.55-2.227
		c0.165-0.577,0.377-1.212,0.602-1.883c1.007-3.011,2.259-6.758,0.864-9.679c-0.314-0.646-0.842-1.177-1.491-1.621
		C223.685,188.781,222.523,192.326,221.562,195.205"/>
	<path clip-path="url(#SVGID_17_)" d="M263.25,203.359c0.981,7.522-0.5,14.265-1.808,20.214l-0.136,0.624
		c0.656,0.063,1.328,0.146,2.02,0.247c1.235-5.667,2.477-12.021,1.559-19.067c-0.573-4.67-2.229-8.416-4.763-11.015
		C261.736,196.755,262.813,199.785,263.25,203.359"/>
	<path clip-path="url(#SVGID_17_)" d="M367.901,214.97c-0.489,1.574-1.846,2.621-2.89,3.414l-0.218,0.166
		c-3.488,2.804-9.614,4.773-15.931,5.849c-0.636,8.661-1.719,17.432-2.862,26.697l-0.539,4.385
		c-0.595,5.704-1.491,10.868-2.664,15.329c-1.33,5.064-3.641,12.07-8.327,14.431c-3.774,1.882-7.04,0.174-8.973-1.637
		c-1.628-1.598-2.543-4.154-3.293-7.18c0.859,3.931,1.786,7.316,3.776,9.271c1.934,1.812,6.352,3.519,10.126,1.639
		c4.687-2.36,6.997-9.368,8.327-14.433c1.173-4.459,2.069-9.622,2.664-15.328l0.541-4.401c1.143-9.261,2.225-18.025,2.86-26.682
		c6.317-1.073,11.291-3.044,14.776-5.848l0.213-0.161c1.248-0.947,2.956-2.244,3.084-4.381l0.056-0.924L367.901,214.97z"/>
	<path clip-path="url(#SVGID_17_)" d="M318.168,242.777c-0.829,1.914-1.76,3.812-2.85,5.604c-1.846,3.305-4.665,8.351-11.337,8.784
		l-0.155,0.009l-0.152-0.03c-4.344-0.897-6.48-3.891-7.598-7.936c0.941,5.096,3.017,8.982,8.082,10.028l0.152,0.031l0.155-0.011
		c6.672-0.433,9.492-5.479,11.336-8.782c0.963-1.585,1.788-3.258,2.543-4.946C318.285,244.61,318.226,243.692,318.168,242.777"/>
	<path clip-path="url(#SVGID_17_)" d="M294.322,226.422c0.002-0.838-0.004-1.682,0.026-2.502c-2.653,0.83-5.367,1.51-7.98,1.41
		c2.96,8.182,4.035,17.744,2.804,25.406c-0.603,4.036-1.857,8.061-3.629,11.625c-2.229,4.327-4.359,7.322-6.521,9.174
		c-2.419,1.96-5.789,2.79-9.045,2.248c-1.907-0.319-3.585-1.104-4.856-2.219c0.071,0.121,0.132,0.255,0.206,0.372
		c1.248,1.996,3.537,3.403,6.281,3.863c3.256,0.546,6.627-0.287,9.047-2.246c2.161-1.851,4.292-4.847,6.521-9.175
		c1.771-3.564,3.026-7.588,3.629-11.624c1.231-7.663,0.156-17.227-2.804-25.408C290.075,227.425,292.219,227.004,294.322,226.422"/>
	<path clip-path="url(#SVGID_17_)" d="M215.794,230.123c0.203-1.142,0.396-2.22,0.685-3.041c0.509-1.206,1.39-2.431,2.242-3.614
		c0.288-0.398,0.57-0.792,0.817-1.153c6.687-9.26,16.211-16.487,28.303-21.48l0.592-0.245c1.707-0.711,4.045-1.689,5.599-1.327
		c0.247,0.064,0.477,0.174,0.697,0.305c-0.568-1.271-1.347-2.064-2.331-2.322c-1.548-0.36-3.885,0.615-5.591,1.324l-0.601,0.248
		c-12.091,4.992-21.613,12.22-28.301,21.479c-0.246,0.36-0.527,0.751-0.813,1.148c-0.854,1.187-1.737,2.412-2.246,3.62
		c-0.289,0.824-0.482,1.903-0.687,3.047c-0.121,0.679-0.245,1.369-0.397,2.047c-1.969,9.674-7.829,50.936-8.494,57.881
		c-0.539,5.618,0.236,11.792-2.356,13.6c0.384-0.04,1.657-0.46,2.001-0.624c2.009-1.004,1.634-5.71,2.301-12.405
		c0.24-2.419,6.214-46.76,8.182-56.433C215.548,231.497,215.672,230.804,215.794,230.123"/>
	<path clip-path="url(#SVGID_17_)" d="M262.083,232.481c0.33,0.036,0.649,0.07,0.944,0.088c0.096,0.005,0.248,0.011,0.43,0.016
		c0.13-0.673,0.264-1.344,0.404-2.018c-1.152,0.034-2.121,0-2.469-0.017c-0.294-0.018-0.615-0.052-0.947-0.088
		c-0.347-0.037-0.864-0.094-1.214-0.099c-0.174,0.352-0.397,1.016-0.528,1.406c-0.089,0.264-0.175,0.519-0.257,0.74
		c-0.998,2.709-2.544,5.83-4.242,8.564c-3.677,6.113-9.708,11.816-17.915,16.938c-3.683,2.342-8.109,4.817-13.793,4.535
		c-2.66-0.1-5.579-1.221-7.686-3.22c1.974,3.265,5.866,5.109,9.319,5.237c5.693,0.286,10.112-2.194,13.792-4.536
		c8.208-5.121,14.239-10.824,17.916-16.938c1.694-2.729,3.24-5.85,4.243-8.564c0.08-0.22,0.165-0.469,0.252-0.729
		c0.132-0.395,0.356-1.063,0.533-1.417C261.215,232.387,261.735,232.443,262.083,232.481"/>
</g>
<g>
	<defs>
		<path id="SVGID_18_" d="M217.523,254.094c-0.395-1.144,1.178-3.161,2.162-4.396c6.987-8.753,18.193-14.801,29.946-18.97
			c-0.007-0.104,0.101-0.111,0.101-0.111c0.052-0.003,0.079,0.021,0.107,0.046c0.029,0.025,0.058,0.049,0.11,0.046
			c-3.33,6.068-7.344,11.438-12.46,16.238c-3.603,3.533-7.556,6.556-14.282,7.843c-0.926,0.208-2.104,0.41-3.154,0.41
			C218.844,255.2,217.805,254.932,217.523,254.094 M269.628,261.782c-0.774-10.272,2.094-21.846,4.61-30.627
			c0.852-3.248,1.983-7.151,3.449-9.162c0.106-0.007,0.106-0.007,0.212-0.013c2.318,2.935,3.052,7.677,3.354,12.339
			c0.525,9.756-1.409,17.648-4.141,24.741c-1.37,3.495-2.938,7.216-5.929,8.686C270.009,266.014,269.772,264.007,269.628,261.782
			 M205.596,205.336c-2.921,15.213-5.915,33.607-6.747,39.755c-2.843,21.786-4.354,52.673-4.354,54.043s5.872,2.235,6.904,1.741
			c1.959-0.979,0.758-5.994,3.962-28.45c1.969-13.802,4.525-34.665,6.125-42.52c0.413-1.836,0.606-3.763,1.146-5.287
			c0.737-1.751,2.118-3.438,3.188-4.997c6.932-9.6,16.572-16.823,28.801-21.872c1.867-0.76,4.758-2.118,6.918-1.619
			c4.547,1.194,4.553,9.494,4.147,14.735c-0.369,5.77-1.332,10.621-3.288,14.896c-10.211,1.729-17.732,5.516-25.122,9.72
			c-3.379,2.027-6.972,4.068-10.304,6.839c-2.616,2.298-5.866,6.339-4.993,11.603c0.72,4.529,5.263,7.32,9.424,7.478
			c5.551,0.277,9.957-2.35,13.125-4.363c6.851-4.276,13.417-9.703,17.546-16.569c1.444-2.328,3.054-5.411,4.14-8.355
			c0.363-0.98,0.789-2.604,1.305-2.851c0.629-0.146,1.922,0.088,2.775,0.139c0.819,0.039,2.368,0.065,3.861-0.069
			c-1.056,4.79-1.772,9.197-2.477,14.878c-0.826,6.969-1.956,19.067,1.839,25.1c2.495,3.988,9.457,4.707,13.604,1.352
			c2.42-2.071,4.537-5.506,6.239-8.811c1.692-3.408,2.929-7.319,3.522-11.296c1.365-8.494-0.262-18.815-3.427-26.592
			c3.452,0.733,7.418-0.48,10.647-1.542c0.107-0.04,0.22-0.079,0.327-0.117c-0.189,3.083-0.163,6.208,0.034,9.245
			c0.722,11.126-0.338,22.688,8.291,24.468c5.828-0.378,8.329-4.477,10.427-8.23c2.021-3.324,3.48-7.036,4.657-10.199
			c0.805,12.398,1.411,25.022,3.708,35.833c0.766,3.57,1.655,7.449,3.587,9.345c1.699,1.591,5.624,3.04,8.819,1.449
			c4.122-2.076,6.367-8.5,7.729-13.696c1.282-4.871,2.11-10.14,2.636-15.175c1.391-11.369,2.744-21.672,3.461-31.935
			c6.006-0.922,11.419-2.763,15.162-5.772c1.217-0.93,2.742-1.986,2.846-3.695c-1.518-0.435-2.821,0.821-4.162,1.44
			c-1.344,0.619-2.799,1.139-4.361,1.666c-2.39,0.899-6.871,2.361-10.189,2.044c-1.61-0.215-3.813-1.348-5.869-0.258
			c-0.985,1.234-0.311,3.426-0.102,5.008c0.648,5.065-0.047,10.75-0.565,15.893c-0.928,10.275-2.331,19.837-5.079,28.314
			c-1.322,4.236-2.975,8.281-5.651,11.327c-3.146-9.159-3.626-21.472-4.088-31.87c-0.246-5.412-0.087-11.168,0.206-16.508
			c0.292-5.339,1.094-11.031-1.023-15.789c-1.922-0.087-4.52-0.771-6.272,0.088c-0.838,1.863-0.05,4.153-0.436,6.413
			c-0.15,0.967-1.128,2.307-1.688,3.514c-4.147,8.251-8.399,16.506-13.265,23.527c-1.791-12.866-0.247-23.501,0.669-33.989
			c-1.402-1.931-4.055-3.461-7.016-3.163c-1.808,0.213-2.071,5.581-2.301,8.449c-1,0.163-2.044,0.312-3.172,0.42
			c-2.853,0.291-7.496,0.911-9.689-0.117c-0.665-0.383-0.938-1.321-1.701-1.592c-0.438-0.185-1.405-0.335-2.16-0.499
			c-0.763-0.27-1.524-0.539-2.161-0.498c-0.424,0.027-1.046,0.281-1.469,0.309c-1.604-0.109-2.726-0.994-4.295-0.573
			c-3.704,0.85-4.284,4.991-5.048,8.561c-0.415-0.068-0.806-0.125-1.109-0.181c-1.723-0.313-3.333-0.528-5.042-0.63
			c1.389-6.477,3.266-13.619,2.207-21.745c-0.904-7.39-4.667-12.892-11.545-13.936c-7.521-1.107-14.484,3.068-19.286,6.147
			c-5.205,3.423-9.726,7.547-13.949,11.332c0.775-2.817,1.509-6.269,2.525-10.272c0.869-3.036,3.016-7.645,1.538-10.741
			c-1.104-2.27-9.233-2.913-9.233-2.913S207.725,194.25,205.596,205.336"/>
	</defs>
	<clipPath id="SVGID_19_">
		<use xlink:href="#SVGID_18_"  overflow="visible"/>
	</clipPath>
	
		<linearGradient id="SVGID_20_" gradientUnits="userSpaceOnUse" x1="0" y1="395.999" x2="1" y2="395.999" gradientTransform="matrix(126.3373 0 0 -126.3373 211.6545 50271.5938)">
		<stop  offset="0" style="stop-color:#58C5C7"/>
		<stop  offset="0.1123" style="stop-color:#61C9CA"/>
		<stop  offset="0.2959" style="stop-color:#79D4D3"/>
		<stop  offset="0.5211" style="stop-color:#A0E6E1"/>
		<stop  offset="0.5584" style="stop-color:#9AE3DF"/>
		<stop  offset="0.853" style="stop-color:#6ACDCE"/>
		<stop  offset="1" style="stop-color:#58C5C7"/>
	</linearGradient>
	<rect x="194.494" y="183.116" clip-path="url(#SVGID_19_)" fill="url(#SVGID_20_)" width="171.293" height="118.253"/>
</g>
<g>
	<defs>
		<path id="SVGID_21_" d="M103.585,211.316c0.744-0.639,1.7,0,2.018,0.849c-2.761,6.477-7.22,11.894-12.106,16.035
			C95.728,222.148,99.125,214.82,103.585,211.316 M146.378,202.502c-4.142,0.531-7.964,5.522-10.194,8.495
			c-6.584,9.133-11.787,20.601-15.823,31.539c1.063-10.62,3.399-20.602,3.505-31.858c-1.062-1.699-3.505-4.141-6.053-2.653
			c-1.573,6.773-3.168,13.73-4.477,20.985c-0.331,0.414-0.642,0.831-0.937,1.206c-7.539,9.876-13.274,21.663-21.344,31.007
			c-1.274,1.488-2.654,3.506-4.884,3.931c-1.169-2.123-0.532-4.672-0.213-6.902c0.744-4.886,1.487-8.92,2.549-13.486
			c0.531-2.018,1.061-4.884,1.911-6.159c0.637-0.955,2.443-1.805,3.504-2.549c1.381-1.062,2.442-2.124,3.186-2.866
			c4.141-4.142,7.646-8.495,10.831-13.593c1.274-2.017,3.822-6.477,2.655-9.132c-0.425-1.168-2.761-2.336-4.036-3.186
			c-2.017-1.486-4.248-3.079-7.326-2.654c-4.885,0.531-8.282,6.796-10.3,10.938c-3.823,8.07-6.372,17.945-7.964,27.819
			c-1.169,7.328-3.61,18.69,0.637,23.895c1.699,1.911,5.946,3.717,9.131,2.335c3.505-1.594,6.053-5.841,7.964-9.345
			c4.807-8.432,9.017-16.463,13.522-24.518c-0.492,3.355-0.906,6.778-1.205,10.288c-0.318,3.824-1.167,10.832,0.956,13.381
			c1.38,1.487,5.31,2.654,7.751,1.487c3.399-1.593,3.717-6.16,4.673-10.195c4.141-16.989,9.876-33.768,21.662-42.475
			c-1.487,12.954-4.092,25.546-5.204,39.927c-1.324,17.133,0.678,38.505,3.573,46.229c2.439,6.507,6.259,7.513,7.347,6.267
			s-1.427-5.57-2.364-11.634c-0.937-6.063-2.608-33.006-1.229-46.81c0.956-9.344,3.08-18.264,4.885-26.759
			c0.638-2.655,1.593-6.901,0.744-9.238c-0.676-1.931-3.635-3.773-6.56-3.773C146.959,202.445,146.667,202.463,146.378,202.502"/>
	</defs>
	<clipPath id="SVGID_22_">
		<use xlink:href="#SVGID_21_"  overflow="visible"/>
	</clipPath>
	
		<linearGradient id="SVGID_23_" gradientUnits="userSpaceOnUse" x1="0" y1="395.9346" x2="1" y2="395.9346" gradientTransform="matrix(107.5094 22.7667 22.7667 -107.5094 -8968.002 42804.0195)">
		<stop  offset="0" style="stop-color:#FDB913"/>
		<stop  offset="0.5068" style="stop-color:#FFDF00"/>
		<stop  offset="1" style="stop-color:#FDB913"/>
	</linearGradient>
	<polygon clip-path="url(#SVGID_22_)" fill="url(#SVGID_23_)" points="80.676,186.778 174.818,206.714 151.342,317.572 
		57.2,297.636 	"/>
</g>
<g>
	<defs>
		<rect id="SVGID_24_" width="396" height="396"/>
	</defs>
	<clipPath id="SVGID_25_">
		<use xlink:href="#SVGID_24_"  overflow="visible"/>
	</clipPath>
	<path clip-path="url(#SVGID_25_)" d="M109.116,220.213c-3.185,5.096-6.678,9.479-10.991,13.792
		c-0.748,0.748-1.864,1.862-3.298,2.966c-0.376,0.265-0.778,0.51-1.198,0.764c-0.777,0.468-1.745,1.052-2.05,1.51
		c-0.544,0.816-1.011,2.761-1.386,4.323c-0.126,0.521-0.248,1.027-0.369,1.49c-0.992,4.268-1.749,8.274-2.524,13.366
		c-0.042,0.294-0.091,0.604-0.141,0.917c-0.239,1.507-0.486,3.055-0.125,4.385c0.65-0.317,1.219-0.827,1.755-1.399
		c0.03-0.195,0.06-0.391,0.092-0.59c0.049-0.316,0.099-0.63,0.141-0.92c0.772-5.077,1.527-9.071,2.511-13.308
		c0.123-0.466,0.246-0.977,0.373-1.504c0.344-1.437,0.817-3.404,1.305-4.136c0.234-0.351,1.257-0.969,1.868-1.338
		c0.432-0.261,0.846-0.513,1.252-0.8c1.463-1.126,2.595-2.256,3.353-3.015c4.346-4.344,7.865-8.761,11.072-13.891
		c2.934-4.648,3.868-8.267,2.817-10.646c-0.288-0.791-0.92-1.459-1.677-2.054C112.843,212.356,111.92,215.771,109.116,220.213"/>
	<path clip-path="url(#SVGID_25_)" d="M156.797,207.953c-0.339-0.97-1.02-1.863-1.91-2.617c0.082,0.165,0.154,0.332,0.214,0.503
		c0.879,2.418,0.178,6.182-0.711,9.886c-0.269,1.271-0.552,2.579-0.838,3.897c-1.582,7.305-3.217,14.857-4.021,22.711
		c-1.398,13.979,0.332,40.766,1.221,46.516c0.402,2.608,1.116,4.914,1.69,6.767c0.862,2.785,1.431,4.624,0.403,5.802
		c-0.222,0.254-0.686,0.634-1.473,0.634c-0.147,0-0.473-0.043-0.473-0.043s0.294,0.766,1.039,0.789
		c0.028,0.001,0.056,0.002,0.084,0.002c0.719,0,1.372-0.296,1.846-0.837c1.238-1.42,0.694-3.093,0.065-5.03
		c-0.446-1.372-1.055-3.25-1.46-5.865c-0.885-5.732-2.609-32.436-1.216-46.371c0.799-7.82,2.432-15.357,4.011-22.646
		c0.285-1.319,0.569-2.628,0.835-3.884C157.013,214.372,157.727,210.507,156.797,207.953"/>
	<path clip-path="url(#SVGID_25_)" d="M125.045,210.068l0.179,0.285l-0.004,0.336c-0.068,7.267-1.066,14.075-2.03,20.66
		c-0.108,0.732-0.216,1.471-0.324,2.212c0.986-2.333,1.991-4.57,3.013-6.713c0.576-4.458,1.024-9.05,1.07-13.849l0.004-0.505
		l-0.267-0.428c-0.473-0.757-1.041-1.458-1.678-2.056C125.021,210.031,125.033,210.049,125.045,210.068"/>
	<path clip-path="url(#SVGID_25_)" d="M104.48,212.237c-2.653,2.093-5.286,6.019-7.725,11.483c3.297-3.493,5.934-7.385,7.752-11.462
		C104.499,212.25,104.488,212.243,104.48,212.237"/>
	<path clip-path="url(#SVGID_25_)" d="M144.777,210.92c-10.378,9.179-15.458,25.295-19.058,40.063
		c-0.156,0.661-0.296,1.343-0.437,2.023c-0.745,3.624-1.516,7.372-4.865,8.942c-2.861,1.368-7.312,0.165-9.086-1.746
		c-0.388-0.466-0.674-1.046-0.914-1.676c0.243,1.77,0.734,3.282,1.645,4.372c1.904,2.053,6.684,3.347,9.751,1.875
		c3.612-1.692,4.449-5.759,5.186-9.347c0.139-0.675,0.278-1.352,0.432-2.002c3.312-13.588,7.888-28.298,16.683-37.61
		C144.346,214.182,144.57,212.553,144.777,210.92"/>
	<path clip-path="url(#SVGID_25_)" d="M109.978,247.009l0.093-1.066c0.123-1.435,0.264-2.873,0.429-4.331
		c-0.92,1.68-1.835,3.36-2.754,5.049c-2.501,4.595-5.086,9.345-7.842,14.179c-2.242,4.11-4.831,8.16-8.488,9.822
		c-3.793,1.642-8.594-0.507-10.471-2.62c-0.767-0.939-1.334-2.049-1.747-3.273c0.393,2.289,1.152,4.349,2.469,5.962
		c2.042,2.297,7.04,4.54,11.14,2.761c3.811-1.731,6.465-5.872,8.75-10.062c2.758-4.839,5.345-9.592,7.847-14.188
		c0.154-0.282,0.306-0.562,0.459-0.843C109.9,247.937,109.936,247.477,109.978,247.009"/>
	<path clip-path="url(#SVGID_25_)" d="M130.218,310.912c0.122,0.156,0.179,0.354,0.179,0.554c0,0.898-0.969,2.023-1.412,2.023
		c-0.071,0-0.13-0.021-0.163-0.073c-1.037-1.249-2.365-1.938-3.794-1.938c-1.697,0-2.736,1.675-2.736,3.594
		c0,2.045,1.112,3.1,2.481,3.981l2.277,1.464c1.916,1.233,3.598,3.234,3.598,6.796c0,4.276-2.326,7.426-6.138,7.426
		c-2.257,0-4.4-0.907-5.97-3.275c-0.077-0.104-0.114-0.25-0.114-0.403c0-0.831,0.86-2.121,1.488-2.121
		c0.122,0,0.232,0.056,0.318,0.164c1.277,1.63,2.702,2.554,4.278,2.554c1.912,0,2.968-1.678,2.968-3.818
		c0-2.15-0.999-3.224-2.541-4.229l-2.286-1.534c-1.792-1.204-3.435-2.936-3.435-6.395c0-4.236,2.2-7.224,5.759-7.224
		C126.903,308.457,128.804,309.062,130.218,310.912"/>
	<path clip-path="url(#SVGID_25_)" d="M143.113,333.607v-21.536c0-0.348-0.073-0.449-0.201-0.449H139.8
		c-0.286,0-0.468-0.015-0.468-0.675v-1.416c0-0.691,0.182-0.783,0.468-0.783h10.104c0.27,0,0.448,0.092,0.448,0.783v1.416
		c0,0.66-0.178,0.675-0.448,0.675h-3.058c-0.12,0-0.197,0.102-0.197,0.449v21.536c0,0.772-0.194,0.866-0.464,0.866h-2.629
		C143.307,334.474,143.113,334.38,143.113,333.607"/>
	<path clip-path="url(#SVGID_25_)" d="M159.884,324.046v-14.457c0-0.774,0.193-0.841,0.465-0.841h2.63
		c0.247,0,0.447,0.066,0.447,0.841v14.347c0,7.085,0.984,7.94,3.241,7.94c2.27,0,3.145-0.645,3.145-7.94v-14.347
		c0-0.774,0.179-0.841,0.448-0.841h2.647c0.251,0,0.427,0.066,0.427,0.841v14.457c0,9.838-2.789,10.693-6.645,10.693
		C162.637,334.739,159.884,333.754,159.884,324.046"/>
	<path clip-path="url(#SVGID_25_)" d="M184.551,333.679v-24.221c0-0.643,0.177-0.71,0.444-0.71h6.156
		c4.025,0,6.508,2.955,6.508,12.684c0,11.949-2.447,13.042-6.991,13.042h-5.673C184.728,334.474,184.551,334.401,184.551,333.679
		 M190.511,331.627c2.625,0,3.611-1.913,3.611-10.141c0-7.824-1.251-9.894-3.489-9.894h-2.347c-0.104,0-0.21,0.11-0.21,0.393v19.246
		c0,0.32,0.086,0.396,0.232,0.396H190.511z"/>
	<path clip-path="url(#SVGID_25_)" d="M208.621,333.629v-24.04c0-0.774,0.199-0.841,0.466-0.841h2.631
		c0.25,0,0.448,0.066,0.448,0.841v24.04c0,0.772-0.198,0.845-0.448,0.845h-2.631C208.82,334.474,208.621,334.401,208.621,333.629"/>
	<path clip-path="url(#SVGID_25_)" d="M223.106,321.486c0-10.627,2.113-13.029,6.713-13.029c4.615,0,6.704,2.345,6.704,13.029
		c0,11.069-1.967,13.253-6.704,13.253C225.107,334.739,223.106,332.489,223.106,321.486 M232.985,321.486
		c0-8.105-0.683-10.129-3.166-10.129c-2.453,0-3.173,2.146-3.173,10.129c0,8.405,0.771,10.424,3.154,10.424
		C232.214,331.91,232.985,329.958,232.985,321.486"/>
	<path clip-path="url(#SVGID_25_)" d="M187.782,286.357h-0.308c-0.106,0-0.229,0-0.302-0.023l-23.907-5.053
		c-0.739-0.16-0.882-0.466-0.9-0.826v-4.56c0.018-0.364,0.161-0.66,0.9-0.812l23.907-4.97c0.16-0.02,0.485-0.085,0.63-0.085
		c0.412,0,0.504,0.155,0.504,0.382v3.702c0,0.293-0.092,0.562-0.738,0.706l-4.604,0.827c-0.232,0.04-0.394,0.084-0.394,0.249v5.438
		c0,0.148,0.183,0.2,0.413,0.244l4.564,0.94c0.651,0.11,0.759,0.317,0.759,0.629v2.87
		C188.306,286.226,188.214,286.357,187.782,286.357 M180.318,276.094c0-0.107-0.167-0.16-0.329-0.16c-0.054,0-0.105,0-0.161,0.053
		l-13.911,2.217c-0.088,0.026-0.122,0.049-0.122,0.066c0,0.052,0.034,0.065,0.108,0.096l13.91,2.631
		c0.071,0.004,0.122,0.012,0.161,0.012c0.163,0,0.344-0.06,0.344-0.33V276.094z"/>
	<path clip-path="url(#SVGID_25_)" d="M187.404,257.273h-24.082c-0.776,0-0.958-0.224-0.958-0.586v-3.417
		c0-0.29,0.276-0.604,0.702-0.806l16.436-7.625c0.11-0.035-0.053-0.146-0.234-0.146h-15.946c-0.776,0-0.958-0.269-0.958-0.606
		v-2.678c0-0.332,0.182-0.563,0.958-0.563h24.151c0.779,0,0.85,0.231,0.85,0.563v2.425c0,0.292-0.303,0.696-0.755,0.895
		l-17.757,8.478c-0.106,0.063,0.043,0.161,0.221,0.161h17.372c0.775,0,0.902,0.243,0.902,0.606v2.713
		C188.306,257.05,188.179,257.273,187.404,257.273"/>
	<path clip-path="url(#SVGID_25_)" d="M187.516,226.455H163.09c-0.656,0-0.726-0.22-0.726-0.563v-7.723
		c0-5.052,2.978-8.182,12.792-8.182c12.046,0,13.15,3.082,13.15,8.793v7.111C188.307,226.235,188.235,226.455,187.516,226.455
		 M185.438,218.978c0-3.301-1.93-4.544-10.228-4.544c-7.885,0-9.975,1.583-9.975,4.386v2.938c0,0.142,0.108,0.274,0.392,0.274
		h19.414c0.323,0,0.397-0.111,0.397-0.293V218.978z"/>
</g>
</svg>
