<?xml version="1.0" standalone="no"?>
<!DOCTYPE svg PUBLIC "-//W3C//DTD SVG 20010904//EN"
 "http://www.w3.org/TR/2001/REC-SVG-20010904/DTD/svg10.dtd">
<svg version="1.0" xmlns="http://www.w3.org/2000/svg"
 width="828.000000pt" height="828.000000pt" viewBox="0 0 828.000000 828.000000"
 preserveAspectRatio="xMidYMid meet">
<metadata>
Created by potrace 1.11, written by Peter Selinger 2001-2013
</metadata>
<g transform="translate(0.000000,828.000000) scale(0.100000,-0.100000)"
fill="#000000" stroke="none">
<path d="M1996 6053 c-40 -93 -64 -149 -91 -208 -13 -28 -51 -116 -85 -195
-34 -79 -72 -167 -85 -195 -13 -27 -85 -192 -160 -365 -75 -173 -145 -333
-155 -355 -10 -22 -34 -78 -55 -125 -20 -47 -43 -98 -50 -115 -115 -262 -169
-385 -222 -510 -36 -82 -73 -168 -83 -190 -9 -22 -34 -78 -54 -125 -20 -47
-41 -93 -47 -102 -5 -10 -9 -25 -9 -33 0 -8 -4 -15 -9 -15 -5 0 -12 -11 -15
-24 -3 -14 -19 -53 -35 -88 -16 -35 -45 -101 -66 -148 -20 -47 -40 -88 -44
-93 -4 -4 -35 64 -68 150 -34 87 -100 257 -148 378 -47 121 -89 229 -94 240
-5 11 -50 124 -99 250 -166 425 -271 690 -296 750 l-26 60 4 -930 3 -930 107
-235 c59 -129 150 -330 202 -445 l95 -211 44 0 44 0 117 266 c64 146 127 288
140 315 12 28 93 210 179 405 87 195 165 371 173 390 9 19 16 37 17 40 2 6 27
62 64 143 16 34 43 96 61 137 18 41 48 108 66 148 19 41 34 75 34 77 0 3 14
35 31 72 17 38 46 102 64 143 38 87 258 584 287 649 11 24 67 150 124 279 58
130 107 238 110 241 8 8 -2 -2680 -10 -2724 -32 -165 -72 -250 -152 -328 -40
-39 -178 -113 -224 -121 -14 -2 -45 -7 -70 -12 -46 -8 -72 -10 -126 -13 -31
-1 -31 -1 -30 -53 l1 -53 953 0 952 0 0 52 c0 53 0 53 -32 54 -18 0 -41 2 -50
4 -9 2 -34 6 -55 9 -166 25 -305 102 -376 209 -57 86 -81 174 -94 352 -9 120
-9 2325 0 2485 14 239 46 345 131 432 104 107 236 161 414 170 l62 3 0 52 0
53 -618 0 -618 0 -28 -67z"/>
<path d="M3619 6096 c-3 -104 -2 -108 25 -112 8 -1 48 -5 90 -9 65 -5 117 -14
252 -41 117 -23 330 -120 464 -209 102 -69 108 -74 236 -200 86 -85 244 -280
244 -300 0 -4 8 -19 19 -33 32 -45 118 -222 155 -317 61 -160 119 -401 134
-560 16 -179 7 -483 -19 -619 -5 -28 -12 -64 -15 -81 -2 -16 -16 -72 -30 -123
-132 -491 -443 -885 -816 -1037 -86 -35 -230 -70 -328 -81 -111 -11 -127 -12
-216 -13 l-91 -1 -2 -58 -2 -58 178 2 c178 2 402 11 458 19 17 3 53 7 80 10
28 3 65 8 83 11 17 2 49 6 70 9 193 27 424 98 562 173 196 107 406 290 516
452 221 323 334 720 329 1155 -2 121 -11 261 -20 295 -2 8 -7 35 -10 60 -4 25
-19 98 -35 162 -89 356 -273 688 -517 933 -137 138 -228 210 -383 302 -174
103 -403 191 -606 232 -97 20 -129 25 -224 37 -25 3 -56 7 -70 10 -14 2 -134
7 -267 10 l-243 5 -1 -25z"/>
<path d="M5691 6071 c-2 -55 0 -56 74 -60 287 -14 478 -171 519 -426 3 -16 8
-55 12 -85 4 -30 8 -554 9 -1165 1 -610 5 -1141 9 -1180 9 -96 24 -189 36
-220 5 -14 12 -37 14 -51 8 -42 86 -192 129 -247 154 -199 395 -341 705 -418
68 -17 133 -27 364 -58 80 -11 481 -11 553 0 33 4 81 11 108 14 l47 6 0 61 0
60 -27 -6 c-16 -3 -98 -9 -183 -12 -353 -15 -590 54 -770 223 -167 156 -258
339 -291 580 -16 122 -25 2115 -10 2338 17 248 47 334 155 440 91 90 195 132
379 150 l67 7 0 49 0 49 -948 0 -949 0 -2 -49z"/>
</g>
</svg>
